<?xml version="1.0" encoding="utf-8"?>
<!-- Generator: Adobe Illustrator 28.0.0, SVG Export Plug-In . SVG Version: 6.00 Build 0)  -->
<svg version="1.1" id="레이어_1" xmlns="http://www.w3.org/2000/svg" xmlns:xlink="http://www.w3.org/1999/xlink" x="0px"
    y="0px" viewBox="0 0 500 500" style="enable-background:new 0 0 500 500;" xml:space="preserve">
<style type="text/css">
   .st0{fill:#08C186;}
   .st1{fill:#FFFFFF;}
</style>
<path class="st0" d="M298.1,19.9c0,0-108.7-15.9-154.4,79.9s-43.3,164.5-65.4,203.5S24.4,357.1,29.2,387s43.8,19.7,58.7,29.3
   c14.9,9.6,31.7,44.7,39.9,49.1c8.2,4.3,39.9,6.7,58.7,0s23.1,18.3,40.4,23.1c17.3,4.8,56.8-13,84.2-44.3
   c25.7-29.3,62.4-80.6,73.6-136.5c1.4-6.8,5.9-12.5,12.2-15.6c11.4-5.6,29.4-17,37.6-35.3c12.6-28.1,28.7-5.2,38.4-12.9
   c3.9-3.1,5.4-8.4,4.4-13.2c-1.5-6.8-7.4-11.6-13.6-14.2c-8.8-3.8-18.5-4.4-27.8-2.2c-8.3,2-16.5,4.9-24,9c-2,1.1-4,2.3-5.9,3.6l0,0
   c-1.7,1.2-4-0.3-3.5-2.4C410.2,190.8,437.9,35.6,298.1,19.9z"/>
<g>
   <path class="st1" d="M271.8,101.7c-3.4-0.9-7.2-0.8-10.4,0.8c-5.8,3.1-10,8.8-12.3,15c-2.2,6.2-2.7,12.9-2.4,19.5
      c0.2,3.6,0.6,7.3,1.9,10.6c1.3,3.4,3.7,6.5,6.9,8c3.8,1.8,8.4,1.4,12.1-0.4c3.8-1.8,6.8-5,9.1-8.5c5.7-8.5,7.9-19.1,6.4-29.2
      c-0.5-3.3-1.4-6.6-3.2-9.5c-1.7-2.7-4.2-5.1-7.3-6.2C272.4,101.9,272.1,101.8,271.8,101.7z"/>
</g>
<g>
   <path class="st1" d="M356,125.7c-3.4-0.9-7.2-0.8-10.4,0.8c-5.8,3.1-10,8.8-12.3,15s-2.7,12.9-2.4,19.5c0.2,3.6,0.6,7.3,1.9,10.6
      c1.3,3.4,3.7,6.5,6.9,8c3.8,1.8,8.4,1.4,12.1-0.4c3.8-1.8,6.8-5,9.1-8.5c5.7-8.5,7.9-19.1,6.4-29.2c-0.5-3.3-1.4-6.6-3.2-9.5
      c-1.7-2.7-4.2-5.1-7.3-6.2C356.6,125.9,356.3,125.8,356,125.7z"/>
</g>
<g>
   <path class="st1" d="M295.1,187.6c-0.8-0.2-1.6-0.6-2.4-1c-2.6-1.4-4.9-3.4-7.1-5.4c-2.9-2.6-5.5-5.6-8.8-7.9
      c-3.5-2.4-7.7-3.7-11.7-2.1c-9.5,3.9-12.3,15.9-8.5,25.2c2.2,5.4,5.1,9.2,9.7,12.6c5.6,4.3,12.3,7.2,19.2,8.6
      c0.4,0.1,0.8,0.2,1.3,0.2c9.6,1.6,19.7,0,28.4-4.4c2.5-1.2,4.9-2.7,6.8-4.7c2.3-2.4,3.8-5.5,4.7-8.7c0.6-2.2,0.8-4.5,0.1-6.7
      c-1.1-3.4-4.5-5.6-8-6.4c-6.1-1.3-12,0.9-18,1.2C298.9,188.3,297,188.2,295.1,187.6z"/>
</g>
<path class="st1" d="M139.7,186.8c15.6-12.3,35.5-23.8,56.1-18.1c4.5,1.2,9,3.3,12.5,6.4c3.2,2.9,5.3,7.7,1.1,10.7
   c-2,1.4-4.4,2-6.7,2.5c-2.9,0.7-5.8,1.3-8.7,1.9c-2.6,0.6-5.7,0.9-7.7,2.9c-1.7,1.7-2.3,4.4-3.4,6.5c-4.8,9.6-12.5,17.5-21.9,22.5
   c-3.5,1.8-0.4,7.1,3.1,5.3c9.4-5,17.4-12.7,22.6-21.9c1.3-2.3,2.3-4.7,3.4-7.1c0.6-1.2,1.1-1.3,2.4-1.6c1.7-0.4,3.4-0.7,5.1-1.1
   c5.7-1.3,12.2-1.9,16.7-6c4.5-4.1,4.7-10.7,1.4-15.5c-3.1-4.5-8.1-7.5-13.1-9.6c-10.2-4.3-21.9-4.3-32.4-1.4
   c-13,3.5-24.3,11.1-34.8,19.4c-1.3,1-1.1,3.2,0,4.3C136.6,188,138.4,187.8,139.7,186.8L139.7,186.8z"/>
<path class="st1" d="M172.8,274.7c-1,8.2-3.6,16.3-7.3,23.8c-0.7,1.5-0.4,3.3,1.1,4.2c1.4,0.8,3.4,0.4,4.2-1.1
   c4.3-8.4,6.9-17.4,8.1-26.8c0.2-1.6-1.5-3-3-3C174,271.6,173,273.1,172.8,274.7L172.8,274.7z"/>
<path class="st1" d="M156.7,317c-4.3,11.9-11.5,22.6-18.6,33.1c-7,10.3-13.6,21.1-21.4,30.7c-4.2,5.1-8.9,9.9-14.3,13.7
   c-1.4,0.9-2,2.7-1.1,4.2c0.8,1.3,2.8,2,4.2,1.1c10.4-7.1,18-17.1,25-27.4c7.6-11,15.4-22,22.3-33.5c3.9-6.4,7.3-13.1,9.8-20.1
   c0.6-1.5-0.6-3.3-2.1-3.7C158.8,314.4,157.3,315.5,156.7,317L156.7,317z"/>
<path class="st1" d="M295.2,355.3c-14.3,22.8-28.8,46-49.5,63.6c-5.4,4.7-11.2,8.8-17.4,12.4c-3.4,2-0.3,7.2,3.1,5.3
   c23.6-13.7,41-35.3,55.9-57.7c4.5-6.8,8.8-13.7,13.1-20.6C302.5,355.1,297.3,352,295.2,355.3L295.2,355.3z"/>
</svg>