<?xml version="1.0" encoding="utf-8"?>
<!-- Generator: Adobe Illustrator 28.0.0, SVG Export Plug-In . SVG Version: 6.00 Build 0)  -->
<svg version="1.1" id="레이어_1" xmlns="http://www.w3.org/2000/svg" xmlns:xlink="http://www.w3.org/1999/xlink" x="0px"
    y="0px" viewBox="0 0 80 80" style="enable-background:new 0 0 80 80;" xml:space="preserve">
<style type="text/css">
   .st0{fill:#2667C6;}
</style>
<g>
   <path class="st0" d="M40,1.7C18.9,1.7,1.7,18.9,1.7,40c0,21.1,17.2,38.3,38.3,38.3S78.3,61.1,78.3,40C78.3,18.9,61.1,1.7,40,1.7z
       M40,69.8c-16.4,0-29.8-13.4-29.8-29.8c0-16.4,13.4-29.8,29.8-29.8S69.8,23.6,69.8,40C69.8,56.4,56.4,69.8,40,69.8z"/>
   <path class="st0" d="M55.5,35.7H44.3V24.5c0-2.4-1.9-4.3-4.3-4.3s-4.3,1.9-4.3,4.3v11.2H24.5c-2.4,0-4.3,1.9-4.3,4.3
      c0,2.4,1.9,4.3,4.3,4.3h11.2v11.2c0,2.4,1.9,4.3,4.3,4.3s4.3-1.9,4.3-4.3V44.3h11.2c2.4,0,4.3-1.9,4.3-4.3
      C59.8,37.6,57.8,35.7,55.5,35.7z"/>
</g>
</svg>