<?xml version="1.0" encoding="utf-8"?>
<!-- Generator: Adobe Illustrator 28.0.0, SVG Export Plug-In . SVG Version: 6.00 Build 0)  -->
<svg version="1.1" id="레이어_1" xmlns="http://www.w3.org/2000/svg" xmlns:xlink="http://www.w3.org/1999/xlink" x="0px"
    y="0px" viewBox="0 0 200 80" style="enable-background:new 0 0 200 80;" xml:space="preserve">
<style type="text/css">
   .st0{fill:#2667C6;}
</style>
<g>
   <path class="st0" d="M63.9,16.2h17c9.9,0,17.9,2.5,17.9,11.8c0,4.1-2.3,8.7-6,10.2v0.3c4.5,1.3,8.1,4.8,8.1,11.1
      c0,9.7-8.4,14-18.6,14H63.9V16.2z M80.6,34.6c4.1,0,6-1.9,6-4.8s-1.9-4.1-6-4.1h-4.2v8.9H80.6z M81.5,53.8c4.9,0,7.3-1.7,7.3-5.2
      c0-3.5-2.3-4.8-7.3-4.8h-5.1v10H81.5z"/>
   <path class="st0" d="M104.8,21.4c0-3.6,2.9-6.3,7-6.3s7,2.6,7,6.3s-2.9,6.3-7,6.3S104.8,25.1,104.8,21.4z M105.5,32.3H118v31.1
      h-12.5V32.3z"/>
   <path class="st0" d="M124.7,27.1h10.2l0.9,4.4h0.3c2.9-2.8,6.5-5.2,11.5-5.2c8,0,11.3,5.8,11.3,14.8v22.4h-12.5V42.6
      c0-4.7-1.2-5.8-3.6-5.8c-2.3,0-3.6,1-5.5,2.8v23.9h-12.5V27.1z"/>
   <path class="st0" d="M166.8,49.5V36.8H162v-9.3l5.5-0.4l1.5-9.5h10.3v9.5h8.3v9.7h-8.3v12.4c0,4,2,5.3,4.4,5.3
      c1.2,0,2.3-0.3,3.2-0.6l1.9,9c-1.9,0.6-4.6,1.3-8.6,1.3C170.7,64.3,166.8,58.3,166.8,49.5z"/>
</g>
<g>
   <path class="st0" d="M12.8,50.6l29.4-29c1.1-1.1,2.5-1.7,4.1-1.7c1.6,0,3,0.6,4.1,1.7c1.1,1.1,1.7,2.5,1.7,4.1c0,1.6-0.6,3-1.7,4.1
      L21,58.9c-1.1,1.1-2.5,1.7-4.1,1.7s-3-0.6-4.1-1.7c-1.1-1.1-1.7-2.5-1.7-4.1C11.1,53.1,11.7,51.8,12.8,50.6z M24.3,32.9
      c-0.7,0.7-1.6,1.3-2.5,1.6c-0.9,0.4-1.9,0.5-2.9,0.5c-1,0-1.9-0.2-2.9-0.6c-0.9-0.4-1.7-0.9-2.5-1.7c-0.7-0.7-1.3-1.6-1.6-2.5
      c-0.4-0.9-0.5-1.9-0.5-2.9c0-1,0.2-1.9,0.6-2.8c0.4-0.9,0.9-1.8,1.7-2.5c0.7-0.7,1.6-1.3,2.5-1.6c0.9-0.4,1.9-0.5,2.9-0.5
      c1,0,1.9,0.2,2.9,0.6c0.9,0.4,1.7,0.9,2.5,1.7c0.7,0.7,1.3,1.6,1.6,2.5c0.4,0.9,0.5,1.9,0.5,2.9c0,1-0.2,1.9-0.6,2.8
      C25.6,31.3,25,32.1,24.3,32.9z M49.5,58.4c-0.7,0.7-1.6,1.3-2.5,1.7c-0.9,0.4-1.9,0.5-2.9,0.5c-1,0-1.9-0.2-2.9-0.6
      c-0.9-0.4-1.7-0.9-2.5-1.7c-0.7-0.7-1.3-1.6-1.6-2.5c-0.4-0.9-0.5-1.9-0.5-2.9c0-1,0.2-1.9,0.6-2.8c0.4-0.9,0.9-1.7,1.7-2.5
      c0.7-0.7,1.6-1.3,2.5-1.6c0.9-0.4,1.9-0.5,2.9-0.5c1,0,1.9,0.2,2.9,0.6c0.9,0.4,1.7,0.9,2.5,1.7c0.7,0.7,1.3,1.6,1.6,2.5
      c0.4,0.9,0.5,1.9,0.5,2.9c0,1-0.2,1.9-0.6,2.8C50.8,56.8,50.3,57.6,49.5,58.4z"/>
</g>
</svg>