<?xml version="1.0" encoding="utf-8"?>
<!-- Generator: Adobe Illustrator 28.0.0, SVG Export Plug-In . SVG Version: 6.00 Build 0)  -->
<svg version="1.1" id="레이어_1" xmlns="http://www.w3.org/2000/svg" xmlns:xlink="http://www.w3.org/1999/xlink" x="0px"
    y="0px" viewBox="0 0 80 80" style="enable-background:new 0 0 80 80;" xml:space="preserve">
<style type="text/css">
   .st0{fill:#2667C6;}
</style>
<path class="st0" d="M65.3,78.3c-2.3,0-4.4-0.9-6.1-2.6L40,55.5L20.8,75.7c-2.4,2.5-6,3.3-9.2,2c-3.2-1.3-5.3-4.3-5.3-7.8V18.3
   C6.3,9.1,13.8,1.7,23,1.7H57c9.2,0,16.7,7.5,16.7,16.7v51.6c0,3.5-2.1,6.5-5.3,7.8C67.4,78.1,66.3,78.3,65.3,78.3z M65.4,69.9
   L65.4,69.9L65.4,69.9z M40,46.4C40,46.4,40,46.4,40,46.4c2,0,4,0.8,5.3,2.3l19.8,20.9l0-51.3c0-4.5-3.6-8.1-8.1-8.1H23
   c-4.5,0-8.1,3.6-8.1,8.1v51.3l19.8-20.9C36,47.3,38,46.4,40,46.4z"/>
</svg>