<?xml version="1.0" encoding="utf-8"?>
<!-- Generator: Adobe Illustrator 28.0.0, SVG Export Plug-In . SVG Version: 6.00 Build 0)  -->
<svg version="1.1" id="레이어_1" xmlns="http://www.w3.org/2000/svg" xmlns:xlink="http://www.w3.org/1999/xlink" x="0px"
    y="0px" viewBox="0 0 80 80" style="enable-background:new 0 0 80 80;" xml:space="preserve">
<style type="text/css">
   .st0{fill:#2667C6;}
</style>
<g>
   <path class="st0" d="M65,23.2c-2.4,0-4.3,1.9-4.3,4.3v34.4c0,4.5-3.7,8.2-8.2,8.2h-25c-4.5,0-8.2-3.7-8.2-8.2V27.5
      c0-2.4-1.9-4.3-4.3-4.3s-4.3,1.9-4.3,4.3v34.4c0,9.3,7.5,16.8,16.8,16.8h25c9.3,0,16.8-7.5,16.8-16.8V27.5
      C69.3,25.1,67.4,23.2,65,23.2z"/>
   <path class="st0" d="M71.3,13.8H59.9v-2c0-5.8-4.7-10.5-10.5-10.5H30.6c-5.8,0-10.5,4.7-10.5,10.5v2H8.7c-2.4,0-4.3,1.9-4.3,4.3
      s1.9,4.3,4.3,4.3h15.6h31.3h15.6c2.4,0,4.3-1.9,4.3-4.3S73.6,13.8,71.3,13.8z M28.7,13.8v-2c0-1.1,0.9-2,2-2h18.8c1.1,0,2,0.9,2,2
      v2H28.7z"/>
   <path class="st0" d="M30.6,63.1c2.4,0,4.3-1.9,4.3-4.3V36.9c0-2.4-1.9-4.3-4.3-4.3s-4.3,1.9-4.3,4.3v21.9
      C26.3,61.1,28.2,63.1,30.6,63.1z"/>
   <path class="st0" d="M53.7,58.8V36.9c0-2.4-1.9-4.3-4.3-4.3s-4.3,1.9-4.3,4.3v21.9c0,2.4,1.9,4.3,4.3,4.3S53.7,61.1,53.7,58.8z"/>
</g>
</svg>
