<?xml version="1.0" encoding="utf-8"?>
<!-- Generator: Adobe Illustrator 28.0.0, SVG Export Plug-In . SVG Version: 6.00 Build 0)  -->
<svg version="1.1" id="레이어_1" xmlns="http://www.w3.org/2000/svg" xmlns:xlink="http://www.w3.org/1999/xlink" x="0px"
    y="0px" viewBox="0 0 80 80" style="enable-background:new 0 0 80 80;" xml:space="preserve">
<style type="text/css">
   .st0{fill:#2667C6;}
</style>
<path class="st0" d="M55.3,4.7c-5.7,0-11,2.1-15.1,5.9c-4.1-3.7-9.4-5.9-15.1-5.9C13,4.7,3,14.7,3,26.9c0,12.6,9,25,16.5,33.3
   c3.7,4,7.8,7.9,11.7,11c6.3,5,8.1,5,9,5c1,0,2.8,0,9-5c3.9-3.1,8.1-7,11.7-11c7.5-8.3,16.5-20.7,16.5-33.3
   C77.5,14.7,67.6,4.7,55.3,4.7z"/>
</svg>