<?xml version="1.0" encoding="utf-8"?>
<!-- Generator: Adobe Illustrator 28.0.0, SVG Export Plug-In . SVG Version: 6.00 Build 0)  -->
<svg version="1.1" id="레이어_1" xmlns="http://www.w3.org/2000/svg" xmlns:xlink="http://www.w3.org/1999/xlink" x="0px"
    y="0px" viewBox="0 0 80 80" style="enable-background:new 0 0 80 80;" xml:space="preserve">
<style type="text/css">
   .st0{fill:#2667C6;}
</style>
<path class="st0" d="M40,75c-0.9,0-2.7,0-9.1-4.4c-4.1-2.8-8.4-6.4-12.2-10.1C10.9,52.8,1.6,41,1.6,27.9C1.6,15.3,11.8,5,24.5,5
   c5.5,0,11,2.7,15.5,7.4C44.5,7.7,50.1,5,55.5,5c12.6,0,22.9,10.3,22.9,22.9c0,13-9.4,24.9-17.2,32.6c-3.8,3.7-8.1,7.2-12.2,10.1
   C42.7,75,40.9,75,40,75z M40.8,66.5L40.8,66.5L40.8,66.5z M24.5,13.6c-7.9,0-14.4,6.4-14.4,14.4c0,9.7,7.4,19.2,13.6,25.5
   c6.8,6.8,13.6,11.4,16.2,12.8c2.6-1.3,9.5-5.9,16.2-12.8c6.2-6.3,13.6-15.8,13.6-25.5c0-7.9-6.4-14.4-14.4-14.4
   c-4.9,0-9.4,4.2-12,8.1c-0.8,1.2-2.1,1.9-3.6,1.9c-1.4,0-2.8-0.7-3.6-1.9C33.9,17.7,29.4,13.6,24.5,13.6z"/>
</svg>