<?xml version="1.0" encoding="utf-8"?>
<!-- Generator: Adobe Illustrator 28.0.0, SVG Export Plug-In . SVG Version: 6.00 Build 0)  -->
<svg version="1.1" id="레이어_1" xmlns="http://www.w3.org/2000/svg" xmlns:xlink="http://www.w3.org/1999/xlink" x="0px"
    y="0px" viewBox="0 0 80 80" style="enable-background:new 0 0 80 80;" xml:space="preserve">
<style type="text/css">
   .st0{fill:#2667C6;}
</style>
<path class="st0" d="M77.4,29.6L45.7,3.2c-3.3-2.8-8.1-2.8-11.4,0L2.6,29.6c-1.8,1.5-2.1,4.3-0.6,6.1c0.9,1,2.1,1.6,3.3,1.6
   c0.7,0,1.3-0.2,2-0.5v28.3c0,7.6,6.2,13.8,13.8,13.8h9.4h18.9h9.4c7.6,0,13.8-6.2,13.8-13.8V36.8c1.8,0.9,4,0.5,5.3-1.1
   C79.5,33.8,79.2,31.1,77.4,29.6z M34.9,70.2V52.5c0-1.1,0.9-2,2-2h6.3c1.1,0,2,0.9,2,2v17.7H34.9z M64,65.1c0,2.8-2.3,5.1-5.1,5.1
   h-5.1V52.5c0-5.9-4.8-10.6-10.6-10.6h-6.3c-5.9,0-10.6,4.8-10.6,10.6v17.7h-5.1c-2.8,0-5.1-2.3-5.1-5.1V30.4c0-0.2,0-0.5-0.1-0.7
   L39.8,9.9c0.1-0.1,0.3-0.1,0.4,0l23.9,19.9c0,0.2-0.1,0.5-0.1,0.7V65.1z"/>
</svg>
