<?xml version="1.0" encoding="utf-8"?>
<!-- Generator: Adobe Illustrator 28.0.0, SVG Export Plug-In . SVG Version: 6.00 Build 0)  -->
<svg version="1.1" id="레이어_1" xmlns="http://www.w3.org/2000/svg" xmlns:xlink="http://www.w3.org/1999/xlink" x="0px"
    y="0px" viewBox="0 0 80 80" style="enable-background:new 0 0 80 80;" xml:space="preserve">
<style type="text/css">
   .st0{fill:#2667C6;}
   .st1{fill:#FFFFFF;}
</style>
<path class="st0" d="M62.2,78.5H18.1c-8.8,0-16-7.2-16-16V18.4c0-8.8,7.2-16,16-16h44.1c8.8,0,16,7.2,16,16v44.1
   C78.2,71.3,71,78.5,62.2,78.5z"/>
<g>
   <path class="st1" d="M19.7,51.8l32-31.7c1.2-1.2,2.7-1.8,4.5-1.8c1.7,0,3.2,0.6,4.5,1.9c1.2,1.2,1.8,2.7,1.8,4.5
      c0,1.8-0.6,3.2-1.8,4.4l-32,31.7c-1.2,1.2-2.7,1.8-4.5,1.8c-1.8,0-3.2-0.6-4.5-1.9c-1.2-1.2-1.8-2.7-1.8-4.5
      C17.8,54.5,18.5,53,19.7,51.8z M32.2,32.4c-0.8,0.8-1.7,1.4-2.7,1.8c-1,0.4-2,0.6-3.1,0.6c-1.1,0-2.1-0.2-3.1-0.6s-1.9-1-2.7-1.8
      c-0.8-0.8-1.4-1.7-1.8-2.7c-0.4-1-0.6-2.1-0.6-3.1c0-1.1,0.2-2.1,0.6-3.1c0.4-1,1-1.9,1.8-2.7c0.8-0.8,1.7-1.4,2.7-1.8
      c1-0.4,2-0.6,3.1-0.6c1.1,0,2.1,0.2,3.1,0.6c1,0.4,1.9,1,2.7,1.8c0.8,0.8,1.4,1.7,1.8,2.7s0.6,2,0.6,3.1c0,1.1-0.2,2.1-0.6,3.1
      C33.6,30.7,33,31.6,32.2,32.4z M59.7,60.2C58.9,61,58,61.6,57,62c-1,0.4-2,0.6-3.1,0.6c-1.1,0-2.1-0.2-3.1-0.6
      c-1-0.4-1.9-1-2.7-1.8c-0.8-0.8-1.4-1.7-1.8-2.7c-0.4-1-0.6-2-0.6-3.1c0-1.1,0.2-2.1,0.6-3.1c0.4-1,1-1.9,1.8-2.7
      c0.8-0.8,1.7-1.4,2.7-1.8c1-0.4,2-0.6,3.1-0.6c1.1,0,2.1,0.2,3.1,0.6c1,0.4,1.9,1,2.7,1.8c0.8,0.8,1.4,1.7,1.8,2.7
      c0.4,1,0.6,2,0.6,3.1c0,1.1-0.2,2.1-0.6,3.1C61.1,58.5,60.5,59.4,59.7,60.2z"/>
</g>
</svg>