<?xml version="1.0" encoding="utf-8"?>
<!-- Generator: Adobe Illustrator 28.0.0, SVG Export Plug-In . SVG Version: 6.00 Build 0)  -->
<svg version="1.1" id="레이어_1" xmlns="http://www.w3.org/2000/svg" xmlns:xlink="http://www.w3.org/1999/xlink" x="0px"
    y="0px" viewBox="0 0 80 80" style="enable-background:new 0 0 80 80;" xml:space="preserve">
<style type="text/css">
   .st0{fill:#2667C6;}
</style>
<g>
   <g>
      <path class="st0" d="M56.7,51.2c-2.3,0-4.2,1.9-4.2,4.2v14c0,0.4-0.2,0.6-0.5,0.6H12.8c-0.2,0-0.5-0.2-0.5-0.6V11.1
         c0-0.4,0.2-0.6,0.5-0.6H52c0.2,0,0.5,0.2,0.5,0.6v15.4c0,2.3,1.9,4.2,4.2,4.2s4.2-1.9,4.2-4.2V11.1c0-5-4-9.1-9-9.1H12.8
         c-4.9,0-9,4.1-9,9.1v58.4c0,5,4,9.1,9,9.1H52c4.9,0,9-4.1,9-9.1v-14C61,53.1,59.1,51.2,56.7,51.2z"/>
      <path class="st0" d="M76.1,37l-7.5-6.2c-1.7-1.4-4.2-1.2-5.6,0.5c-1.2,1.4-1.2,3.4-0.2,4.8H27.1c-2.2,0-4,1.8-4,4c0,2.2,1.8,4,4,4
         h35.7c-1,1.4-1,3.4,0.2,4.8c0.8,1,1.9,1.5,3.1,1.5c0.9,0,1.8-0.3,2.5-0.9l7.5-6.2c1-0.8,1.5-2,1.4-3.2
         C77.6,39.1,77.1,37.9,76.1,37z"/>
   </g>
</g>
</svg>