<?xml version="1.0" encoding="utf-8"?>
<!-- Generator: Adobe Illustrator 28.0.0, SVG Export Plug-In . SVG Version: 6.00 Build 0)  -->
<svg version="1.1" id="레이어_1" xmlns="http://www.w3.org/2000/svg" xmlns:xlink="http://www.w3.org/1999/xlink" x="0px"
    y="0px" viewBox="0 0 80 80" style="enable-background:new 0 0 80 80;" xml:space="preserve">
<style type="text/css">
   .st0{fill:#2667C6;}
</style>
<g>
   <path class="st0" d="M40,41.2c-10.9,0-19.7-8.8-19.7-19.7S29.1,1.7,40,1.7s19.7,8.8,19.7,19.7S50.9,41.2,40,41.2z M40,10.2
      c-6.2,0-11.2,5-11.2,11.2s5,11.2,11.2,11.2s11.2-5,11.2-11.2S46.2,10.2,40,10.2z"/>
   <path class="st0" d="M64.7,78.3c-2.3,0-4.3-1.9-4.3-4.3v-3.1c0-9.6-7.8-17.4-17.4-17.4h-6.2c-9.6,0-17.4,7.8-17.4,17.4V74
      c0,2.3-1.9,4.3-4.3,4.3S11,76.4,11,74v-3.1C11,56.7,22.6,45,36.9,45h6.2C57.4,45,69,56.7,69,70.9V74C69,76.4,67.1,78.3,64.7,78.3z"
      />
</g>
</svg>