<?xml version="1.0" encoding="utf-8"?>
<!-- Generator: Adobe Illustrator 28.0.0, SVG Export Plug-In . SVG Version: 6.00 Build 0)  -->
<svg version="1.1" id="레이어_1" xmlns="http://www.w3.org/2000/svg" xmlns:xlink="http://www.w3.org/1999/xlink" x="0px"
    y="0px" viewBox="0 0 80 80" style="enable-background:new 0 0 80 80;" xml:space="preserve">
<style type="text/css">
   .st0{fill:#2667C6;}
</style>
<path class="st0" d="M77.2,71.2L64.7,58.7c4.7-6,7.5-13.6,7.5-21.8c0-19.5-15.9-35.4-35.4-35.4C17.4,1.5,1.5,17.4,1.5,36.9
   s15.9,35.4,35.4,35.4c8.2,0,15.8-2.8,21.8-7.5l12.5,12.5c0.8,0.8,1.9,1.3,3,1.3c1.1,0,2.2-0.4,3-1.3C78.9,75.5,78.9,72.8,77.2,71.2z
    M36.9,63.7c-14.8,0-26.8-12-26.8-26.8s12-26.8,26.8-26.8c14.8,0,26.8,12,26.8,26.8S51.7,63.7,36.9,63.7z"/>
</svg>