<?xml version="1.0" encoding="utf-8"?>
<!-- Generator: Adobe Illustrator 28.0.0, SVG Export Plug-In . SVG Version: 6.00 Build 0)  -->
<svg version="1.1" id="레이어_1" xmlns="http://www.w3.org/2000/svg" xmlns:xlink="http://www.w3.org/1999/xlink" x="0px"
    y="0px" viewBox="0 0 80 80" style="enable-background:new 0 0 80 80;" xml:space="preserve">
<style type="text/css">
   .st0{fill:#2667C6;}
</style>
<g>
   <path class="st0" d="M61.7,78.3H18.3c-9.2,0-16.7-7.5-16.7-16.7V21.4c0-9.2,7.5-16.7,16.7-16.7h9.3c2.4,0,4.3,1.9,4.3,4.3
      s-1.9,4.3-4.3,4.3h-9.3c-4.5,0-8.1,3.6-8.1,8.1v40.3c0,4.5,3.6,8.1,8.1,8.1h43.4c4.5,0,8.1-3.6,8.1-8.1V40c0-2.4,1.9-4.3,4.3-4.3
      c2.4,0,4.3,1.9,4.3,4.3v21.7C78.3,70.9,70.9,78.3,61.7,78.3z"/>
   <path class="st0" d="M22.8,58.4c-1.1,0-2.2-0.4-3-1.2c-0.8-0.8-1.3-1.9-1.3-3V38.9c0-1.1,0.4-2.2,1.2-3L49.2,6.2
      c2.9-2.9,6.7-4.5,10.8-4.5c0,0,0,0,0,0c4.1,0,7.9,1.6,10.7,4.4c2.9,2.9,4.4,6.7,4.4,10.7c0,4.1-1.6,7.9-4.4,10.7L41.3,57
      c-0.8,0.8-1.9,1.2-3,1.2L22.8,58.4C22.8,58.4,22.8,58.4,22.8,58.4z M38.3,54L38.3,54L38.3,54z M27,40.6v9.2l9.5-0.1l28.2-28.2
      c1.3-1.3,2-2.9,2-4.7c0-1.8-0.7-3.5-2-4.7c-1.3-1.3-2.9-2-4.7-2c0,0,0,0,0,0c-1.8,0-3.5,0.7-4.7,2L27,40.6z"/>
</g>
</svg>
